HIERARCHY
ROOT Hips
{
	OFFSET -0.001795 -0.223333 0.028219
	CHANNELS 6 Xposition Yposition Zposition Zrotation Yrotation Xrotation 
	JOINT LeftUpLeg
	{
		OFFSET 0.069520 -0.091406 -0.006815
		CHANNELS 3 Zrotation Yrotation Xrotation
		JOINT LeftLeg
		{
			OFFSET 0.034277 -0.375199 -0.004496
			CHANNELS 3 Zrotation Yrotation Xrotation
			JOINT LeftFoot
			{
				OFFSET -0.013596 -0.397961 -0.043693
				CHANNELS 3 Zrotation Yrotation Xrotation
				JOINT LeftToe
				{
					OFFSET 0.026358 -0.055791 0.119288
					CHANNELS 3 Zrotation Yrotation Xrotation
					End Site
					{
						OFFSET 0.000000 0.000000 0.000000
					}
				}
			}
		}
	}
	JOINT RightUpLeg
	{
		OFFSET -0.067670 -0.090522 -0.004320
		CHANNELS 3 Zrotation Yrotation Xrotation
		JOINT RightLeg
		{
			OFFSET -0.038290 -0.382569 -0.008850
			CHANNELS 3 Zrotation Yrotation Xrotation
			JOINT RightFoot
			{
				OFFSET 0.015774 -0.398415 -0.042312
				CHANNELS 3 Zrotation Yrotation Xrotation
				JOINT RightToe
				{
					OFFSET -0.025372 -0.048144 0.123348
					CHANNELS 3 Zrotation Yrotation Xrotation
					End Site
					{
						OFFSET 0.000000 0.000000 0.000000
					}
				}
			}
		}
	}
	JOINT Spine
	{
		OFFSET -0.002533 0.108963 -0.026696
		CHANNELS 3 Zrotation Yrotation Xrotation
		JOINT Spine1
		{
			OFFSET 0.005487 0.135180 0.001092
			CHANNELS 3 Zrotation Yrotation Xrotation
			JOINT Spine2
			{
				OFFSET 0.001457 0.052922 0.025425
				CHANNELS 3 Zrotation Yrotation Xrotation
				JOINT Neck
				{
					OFFSET -0.002778 0.213870 -0.042857
					CHANNELS 3 Zrotation Yrotation Xrotation
					JOINT Head
					{
						OFFSET 0.005152 0.064970 0.051349
						CHANNELS 3 Zrotation Yrotation Xrotation
						End Site
						{
							OFFSET 0.000000 0.000000 0.000000
						}
					}
				}
				JOINT LeftShoulder
				{
					OFFSET 0.078845 0.121749 -0.034090
					CHANNELS 3 Zrotation Yrotation Xrotation
					JOINT LeftArm
					{
						OFFSET 0.090977 0.030469 -0.008868
						CHANNELS 3 Zrotation Yrotation Xrotation
						JOINT LeftForeArm
						{
							OFFSET 0.259612 -0.012772 -0.027456
							CHANNELS 3 Zrotation Yrotation Xrotation
							JOINT LeftHand
							{
								OFFSET 0.249234 0.008986 -0.001171
								CHANNELS 3 Zrotation Yrotation Xrotation
								End Site
								{
									OFFSET 0.000000 0.000000 0.000000
								}
							}
						}
					}
				}
				JOINT RightShoulder
				{
					OFFSET -0.081759 0.118833 -0.038615
					CHANNELS 3 Zrotation Yrotation Xrotation
					JOINT RightArm
					{
						OFFSET -0.096012 0.032551 -0.009143
						CHANNELS 3 Zrotation Yrotation Xrotation
						JOINT RightForeArm
						{
							OFFSET -0.253742 -0.013329 -0.021401
							CHANNELS 3 Zrotation Yrotation Xrotation
							JOINT RightHand
							{
								OFFSET -0.255298 0.007772 -0.005559
								CHANNELS 3 Zrotation Yrotation Xrotation
								End Site
								{
									OFFSET 0.000000 0.000000 0.000000
								}
							}
						}
					}
				}
			}
		}
	}
}
MOTION
Frames: 7
Frame Time: 0.050000
0.000000 0.945717 0.000000 0.552691 -11.606483 2.171937 5.212294 -0.177505 -4.983298 -2.943675 0.402653 -1.104885 2.580879 7.408009 11.264808 0.000000 0.000000 0.000000 -7.076232 0.540846 -4.081485 4.062777 -0.244784 5.256374 -7.094333 -18.502089 9.363908 0.000000 0.000000 0.000000 -0.110926 -0.351649 13.293635 5.525709 -1.372882 -18.487870 3.612930 7.651384 26.405946 1.816627 0.342752 -20.698639 0.000000 0.000000 0.000000 -20.731284 -5.371246 1.736889 -49.843226 -15.519939 -1.835614 -23.877702 -42.933404 12.059801 0.000000 0.000000 0.000000 14.567144 15.704970 7.083427 48.942137 23.320621 2.395139 -8.875276 32.948453 -0.912522 0.000000 0.000000 0.000000 
-0.002186 0.945336 0.000254 0.378483 -11.865109 2.885370 5.623222 -0.179296 -5.520659 -3.022028 0.412374 -0.865521 1.496086 5.350925 10.218864 0.000000 0.000000 0.000000 -5.947070 0.540069 -4.515937 3.266738 -0.157868 4.806254 -8.372845 -20.886719 10.794559 0.000000 0.000000 0.000000 0.396587 -0.420210 13.423409 6.296849 -1.534558 -18.956827 4.148259 8.008424 26.283212 2.695522 -0.323531 -19.068188 0.000000 0.000000 0.000000 -22.694122 -4.006923 0.805395 -48.940182 -14.354738 -2.285639 -28.047309 -42.188935 13.534504 0.000000 0.000000 0.000000 13.058560 16.770338 7.463498 49.262621 24.860030 3.139009 -11.787200 32.010414 -1.639889 0.000000 0.000000 0.000000 
-0.004134 0.944937 0.000436 1.323203 -10.978923 3.289073 5.023772 -0.277124 -6.523423 -3.277887 0.440219 0.790865 1.370251 4.918901 8.732232 0.000000 0.000000 0.000000 -6.904541 0.590113 -5.210955 3.741392 -0.212570 5.290698 -9.241650 -22.277827 9.971790 0.000000 0.000000 0.000000 0.256584 -0.402502 12.928160 6.783950 -1.724666 -18.093496 4.075684 8.106305 25.675961 2.581401 -0.166025 -18.868529 0.000000 0.000000 0.000000 -23.025852 -4.528071 0.855601 -49.033922 -14.330878 -2.173447 -29.004564 -42.380981 13.877306 0.000000 0.000000 0.000000 13.471463 17.735530 8.101398 46.492071 27.850139 4.041691 -12.679061 29.040339 -1.718161 0.000000 0.000000 0.000000 
-0.005948 0.944749 0.000608 1.799955 -10.957993 3.571541 5.005799 -0.308727 -7.162674 -3.716802 0.502729 0.742689 0.407871 3.342295 9.308311 0.000000 0.000000 0.000000 -7.196027 0.616278 -5.603527 3.553423 -0.175876 5.917317 -9.953710 -23.509625 10.727012 0.000000 0.000000 0.000000 -0.217372 -0.340144 13.296817 7.976284 -2.116089 -17.404999 4.347811 9.201176 24.904910 3.224529 -0.518323 -17.700805 0.000000 0.000000 0.000000 -23.748071 -4.037666 0.087118 -48.222730 -13.937308 -2.125078 -31.908336 -44.113143 15.552529 0.000000 0.000000 0.000000 13.653799 19.131460 9.028051 44.906954 29.391235 4.485273 -14.780499 27.527499 -2.065612 0.000000 0.000000 0.000000 
-0.007804 0.944660 0.000981 2.465993 -10.531217 3.628272 4.132329 -0.404292 -7.715327 -3.244599 0.431933 1.068302 0.137865 2.919961 9.386288 0.000000 0.000000 0.000000 -7.698890 0.623944 -5.698057 3.302825 -0.152021 5.815590 -9.572727 -22.871052 10.623789 0.000000 0.000000 0.000000 0.368010 -0.428918 13.586502 7.586607 -2.071957 -16.667654 4.781824 9.712013 24.542027 3.668438 -0.606371 -18.588454 0.000000 0.000000 0.000000 -23.225791 -4.600666 0.182303 -48.757764 -13.521975 -2.177149 -33.517835 -45.398606 16.636217 0.000000 0.000000 0.000000 14.632380 19.283885 9.423011 43.186855 31.904307 5.159448 -16.065660 25.376854 -2.130678 0.000000 0.000000 0.000000 
-0.009797 0.944421 0.001615 2.839959 -9.825463 4.105179 3.923655 -0.467036 -8.438249 -3.552368 0.469237 1.001020 -0.204772 2.540024 9.973132 0.000000 0.000000 0.000000 -7.948723 0.631495 -5.904324 3.265981 -0.157317 5.745912 -9.885902 -23.395726 10.945331 0.000000 0.000000 0.000000 0.471301 -0.451306 13.462989 7.926068 -2.144727 -16.698433 5.231143 10.502101 24.626228 4.010012 -0.680779 -18.387517 0.000000 0.000000 0.000000 -23.759506 -5.121926 0.054192 -48.284549 -13.685587 -2.004913 -35.578409 -45.633329 17.475786 0.000000 0.000000 0.000000 15.078973 19.646894 9.963357 42.228636 33.084847 5.381887 -17.250728 24.417001 -2.224447 0.000000 0.000000 0.000000 
-0.011733 0.944360 0.002529 2.945440 -9.628141 4.247804 3.690540 -0.509012 -8.874328 -3.391287 0.444789 1.126330 -0.349612 2.415288 10.382087 0.000000 0.000000 0.000000 -7.939346 0.640458 -6.196711 3.119896 -0.125323 6.335549 -9.615607 -22.948746 10.802172 0.000000 0.000000 0.000000 0.998780 -0.529632 13.476709 8.048879 -2.245430 -16.017493 5.373006 11.071667 24.416015 4.381668 -0.792543 -18.647465 0.000000 0.000000 0.000000 -23.653523 -5.369507 -0.026437 -48.057363 -12.842076 -2.249482 -36.510909 -46.369100 18.076818 0.000000 0.000000 0.000000 15.768062 20.081589 10.472978 41.735012 33.950626 5.601974 -17.693915 23.284857 -2.172310 0.000000 0.000000 0.000000 
